<svg width="102" height="22" viewBox="0 0 102 22" fill="none" xmlns="http://www.w3.org/2000/svg">
<path d="M5.3042 12.2837C5.3042 12.7419 5.4385 13.1053 5.7071 13.3739C5.9757 13.6425 6.2759 13.7768 6.6077 13.7768C7.0027 13.7768 7.2871 13.6741 7.4609 13.4687C7.6347 13.2475 7.7216 12.8525 7.7216 12.2837V3.6095C7.7216 2.6457 7.927 1.9347 8.3378 1.4765C8.7644 1.0025 9.4596 0.765498 10.4234 0.765498C11.2766 0.765498 11.9481 0.962998 12.4379 1.358C12.9277 1.753 13.1726 2.4324 13.1726 3.3962V12.1889C13.1726 13.9269 12.6433 15.1909 11.5847 15.9809C10.5419 16.7709 9.0014 17.1659 6.9632 17.1659C6.3154 17.1659 5.715 17.1185 5.162 17.0237C4.609 16.9289 4.1192 16.8025 3.6926 16.6445C3.266 16.4707 2.871 16.2732 2.5076 16.052C2.16 15.8308 1.8598 15.5859 1.607 15.3173C1.37 15.0487 1.1567 14.7722 0.9671 14.4878C0.7775 14.1876 0.6274 13.8874 0.5168 13.5872C0.422 13.2712 0.343 12.9789 0.2798 12.7103C0.2324 12.4259 0.2087 12.1415 0.2087 11.8571C0.2087 10.7985 0.3825 10.0796 0.7301 9.7004C1.0935 9.3054 1.7966 9.1079 2.8394 9.1079C3.6768 9.1079 4.3167 9.258 4.7591 9.5582C5.2173 9.8584 5.4464 10.2692 5.4464 10.7906C5.4464 10.9486 5.4227 11.2014 5.3753 11.549C5.3279 11.8966 5.3042 12.1415 5.3042 12.2837ZM22.9975 11.3831C22.9975 10.5615 22.8948 9.8426 22.6894 9.2264C22.484 8.5944 22.1838 8.2784 21.7888 8.2784C21.5202 8.2784 21.2832 8.4364 21.0778 8.7524C20.8724 9.0684 20.7223 9.4555 20.6275 9.9137C20.5327 10.3719 20.4853 10.8617 20.4853 11.3831C20.4853 12.1889 20.5959 12.8999 20.8171 13.5161C21.0383 14.1165 21.3543 14.4167 21.7651 14.4167C22.1759 14.4167 22.484 14.1165 22.6894 13.5161C22.8948 12.9157 22.9975 12.2047 22.9975 11.3831ZM21.7651 17.1659C20.5327 17.1659 19.4188 16.9447 18.4234 16.5023C17.4438 16.0599 16.6538 15.3963 16.0534 14.5115C15.4688 13.6267 15.1765 12.5918 15.1765 11.4068C15.1765 9.6056 15.7927 8.1757 17.0251 7.1171C18.2575 6.0585 19.8375 5.5292 21.7651 5.5292C23.6927 5.5292 25.2648 6.0585 26.4814 7.1171C27.698 8.1757 28.3063 9.6056 28.3063 11.4068C28.3063 13.1922 27.6822 14.5984 26.434 15.6254C25.2016 16.6524 23.6453 17.1659 21.7651 17.1659ZM35.5315 6.6668C36.5743 5.8926 37.704 5.5055 38.9206 5.5055C40.153 5.5055 41.18 6.0269 42.0016 7.0697C42.8232 8.1125 43.234 9.4318 43.234 11.0276C43.234 12.9552 42.6099 14.4641 41.3617 15.5543C40.1135 16.6287 38.494 17.1659 36.5032 17.1659C35.2866 17.1659 34.2201 16.9921 33.3037 16.6445C32.4031 16.2969 31.6921 15.7755 31.1707 15.0803C30.6651 14.3851 30.4044 13.5477 30.3886 12.5681L30.3412 3.6332C30.3412 2.6536 30.5782 1.9347 31.0522 1.4765C31.5262 1.0183 32.1582 0.789199 32.9482 0.789199C33.833 0.789199 34.4808 1.0025 34.8916 1.4291C35.3182 1.8399 35.5315 2.5035 35.5315 3.4199V6.6668ZM35.5552 13.3739C35.8396 13.9111 36.2346 14.1797 36.7402 14.1797C37.1668 14.1797 37.4986 13.9111 37.7356 13.3739C37.9726 12.8367 38.0911 12.2205 38.0911 11.5253C38.0911 11.1461 38.0595 10.7748 37.9963 10.4114C37.9331 10.048 37.8462 9.7241 37.7356 9.4397C37.625 9.1395 37.4828 8.9025 37.309 8.7287C37.1352 8.5391 36.9377 8.4443 36.7165 8.4443C36.2267 8.4443 35.8396 8.7366 35.5552 9.3212C35.5552 9.5266 35.5552 10.1191 35.5552 11.0987C35.5552 12.0625 35.5552 12.8209 35.5552 13.3739ZM50.4129 12.2837C50.4129 12.7419 50.5472 13.1053 50.8158 13.3739C51.0844 13.6425 51.3846 13.7768 51.7164 13.7768C52.1114 13.7768 52.3958 13.6741 52.5696 13.4687C52.7434 13.2475 52.8303 12.8525 52.8303 12.2837V3.6095C52.8303 2.6457 53.0357 1.9347 53.4465 1.4765C53.8731 1.0025 54.5683 0.765498 55.5321 0.765498C56.3853 0.765498 57.0568 0.962998 57.5466 1.358C58.0364 1.753 58.2813 2.4324 58.2813 3.3962V12.1889C58.2813 13.9269 57.752 15.1909 56.6934 15.9809C55.6506 16.7709 54.1101 17.1659 52.0719 17.1659C51.4241 17.1659 50.8237 17.1185 50.2707 17.0237C49.7177 16.9289 49.2279 16.8025 48.8013 16.6445C48.3747 16.4707 47.9797 16.2732 47.6163 16.052C47.2687 15.8308 46.9685 15.5859 46.7157 15.3173C46.4787 15.0487 46.2654 14.7722 46.0758 14.4878C45.8862 14.1876 45.7361 13.8874 45.6255 13.5872C45.5307 13.2712 45.4517 12.9789 45.3885 12.7103C45.3411 12.4259 45.3174 12.1415 45.3174 11.8571C45.3174 10.7985 45.4912 10.0796 45.8388 9.7004C46.2022 9.3054 46.9053 9.1079 47.9481 9.1079C48.7855 9.1079 49.4254 9.258 49.8678 9.5582C50.326 9.8584 50.5551 10.2692 50.5551 10.7906C50.5551 10.9486 50.5314 11.2014 50.484 11.549C50.4366 11.8966 50.4129 12.1415 50.4129 12.2837ZM66.9686 17.1422C65.041 17.1422 63.4452 16.6445 62.1812 15.6491C60.933 14.6537 60.3089 13.2949 60.3089 11.5727C60.3089 9.7083 60.9251 8.2389 62.1575 7.1645C63.4057 6.0743 65.0094 5.5292 66.9686 5.5292C68.8172 5.5292 70.1681 5.861 71.0213 6.5246C71.8903 7.1724 72.3248 8.0651 72.3248 9.2027C72.3248 9.4239 72.2932 9.6372 72.23 9.8426C72.1826 10.048 72.0957 10.2534 71.9693 10.4588C71.8587 10.6484 71.7007 10.8301 71.4953 11.0039C71.3057 11.1619 71.0845 11.312 70.8317 11.4542C70.5789 11.5806 70.2787 11.6833 69.9311 11.7623C69.5835 11.8255 69.2122 11.8571 68.8172 11.8571L65.4755 11.8808C65.6335 12.3864 65.9179 12.7893 66.3287 13.0895C66.7395 13.3739 67.2609 13.5161 67.8929 13.5161C68.5723 13.5161 69.2675 13.4292 69.9785 13.2554C70.2787 13.1764 70.6026 13.05 70.9502 12.8762C71.3136 12.7024 71.5743 12.6155 71.7323 12.6155C72.0009 12.6155 72.2063 12.6945 72.3485 12.8525C72.5065 13.0105 72.5855 13.208 72.5855 13.445C72.5855 13.7294 72.4591 14.077 72.2063 14.4878C71.9535 14.8828 71.598 15.2857 71.1398 15.6965C70.6974 16.0915 70.1049 16.4312 69.3623 16.7156C68.6197 17 67.8218 17.1422 66.9686 17.1422ZM65.357 10.364C66.4472 10.3482 67.0397 10.3403 67.1345 10.3403C67.3715 10.3403 67.5453 10.1981 67.6559 9.9137C67.7349 9.7083 67.7744 9.4239 67.7744 9.0605C67.7744 8.0651 67.4742 7.5674 66.8738 7.5674C66.6526 7.5674 66.4314 7.6859 66.2102 7.9229C66.0048 8.1599 65.8231 8.4996 65.6651 8.942C65.5071 9.3686 65.4044 9.8426 65.357 10.364ZM79.7602 13.4213C79.7602 14.7011 79.5469 15.6175 79.1203 16.1705C78.6937 16.7235 78.038 17 77.1532 17C76.2684 17 75.6206 16.7551 75.2098 16.2653C74.799 15.7597 74.5936 14.8749 74.5936 13.6109L74.5462 3.6095C74.5462 3.1987 74.5857 2.8353 74.6647 2.5193C74.7595 2.2033 74.878 1.9347 75.0202 1.7135C75.1782 1.4923 75.3678 1.3106 75.589 1.1684C75.8102 1.0262 76.0472 0.923498 76.3 0.860298C76.5686 0.797098 76.853 0.765498 77.1532 0.765498C78.0222 0.765498 78.67 0.939298 79.0966 1.2869C79.539 1.6345 79.7602 2.3376 79.7602 3.3962V13.4213ZM87.3747 13.4213C87.3747 14.7011 87.1614 15.6175 86.7348 16.1705C86.3082 16.7235 85.6525 17 84.7677 17C83.8829 17 83.2351 16.7551 82.8243 16.2653C82.4135 15.7597 82.2081 14.8749 82.2081 13.6109L82.1607 3.6095C82.1607 3.1987 82.2002 2.8353 82.2792 2.5193C82.374 2.2033 82.4925 1.9347 82.6347 1.7135C82.7927 1.4923 82.9823 1.3106 83.2035 1.1684C83.4247 1.0262 83.6617 0.923498 83.9145 0.860298C84.1831 0.797098 84.4675 0.765498 84.7677 0.765498C85.6367 0.765498 86.2845 0.939298 86.7111 1.2869C87.1535 1.6345 87.3747 2.3376 87.3747 3.3962V13.4213ZM101.82 10.3166C101.82 13.0184 101.741 14.9065 101.583 15.9809C101.457 16.9447 101.26 17.7742 100.991 18.4694C100.722 19.1804 100.343 19.8045 99.8533 20.3417C99.3635 20.8947 98.7394 21.3055 97.981 21.5741C97.2226 21.8427 96.322 21.977 95.2792 21.977C94.4418 21.977 93.6597 21.8506 92.9329 21.5978C92.2219 21.3608 91.6531 21.0606 91.2265 20.6972C90.8157 20.3496 90.4918 20.002 90.2548 19.6544C90.0178 19.3068 89.8993 19.0066 89.8993 18.7538C89.8993 18.501 89.9783 18.264 90.1363 18.0428C90.3101 17.8374 90.5392 17.7347 90.8236 17.7347C91.029 17.7347 91.266 17.7979 91.5346 17.9243C91.819 18.0507 92.0876 18.1929 92.3404 18.3509C92.5932 18.5089 92.8934 18.6511 93.241 18.7775C93.5886 18.9039 93.9283 18.9671 94.2601 18.9671C95.1133 18.9671 95.7137 18.7538 96.0613 18.3272C96.4247 17.9006 96.6064 17.2923 96.6064 16.5023C96.3378 16.6129 96.0771 16.7077 95.8243 16.7867C95.5715 16.8657 95.3266 16.9289 95.0896 16.9763C94.8526 17.0237 94.6235 17.0553 94.4023 17.0711C94.1969 17.0869 93.9915 17.0948 93.7861 17.0948C92.8539 17.0948 92.056 16.8341 91.3924 16.3127C90.7288 15.7913 90.2469 15.1514 89.9467 14.393C89.6623 13.6188 89.5201 12.7893 89.5201 11.9045C89.5201 11.0197 89.528 10.2692 89.5438 9.653C89.5754 9.0368 89.6307 8.4917 89.7097 8.0177C89.7887 7.5279 89.8756 7.1408 89.9704 6.8564C90.081 6.572 90.2311 6.3429 90.4207 6.1691C90.6103 5.9795 90.8236 5.8531 91.0606 5.7899C91.2976 5.7267 91.582 5.6951 91.9138 5.6951C92.9092 5.6951 93.6044 5.8689 93.9994 6.2165C94.4102 6.5483 94.6156 7.0776 94.6156 7.8044L94.6393 11.6201C94.6393 11.8729 94.6393 12.0625 94.6393 12.1889C94.6393 12.2995 94.6472 12.4417 94.663 12.6155C94.6946 12.7893 94.7262 12.9157 94.7578 12.9947C94.8052 13.0737 94.8605 13.1606 94.9237 13.2554C95.0027 13.3344 95.0975 13.3897 95.2081 13.4213C95.3345 13.4529 95.4846 13.4687 95.6584 13.4687C96.1324 13.4687 96.4247 13.3423 96.5353 13.0895C96.6617 12.8209 96.7249 12.339 96.7249 11.6438L96.7486 7.8044C96.7486 7.3146 96.8276 6.9196 96.9856 6.6194C97.1594 6.3192 97.4438 6.0901 97.8388 5.9321C98.2338 5.7741 98.771 5.6951 99.4504 5.6951C99.8612 5.6951 100.209 5.7662 100.493 5.9084C100.793 6.0348 101.03 6.2086 101.204 6.4298C101.378 6.6352 101.504 6.9512 101.583 7.3778C101.678 7.7886 101.741 8.2073 101.773 8.6339C101.805 9.0605 101.82 9.6214 101.82 10.3166Z" fill="#005149"/>
</svg>
